<svg xmlns="http://www.w3.org/2000/svg" width="24" height="24" fill="none" viewBox="0 0 24 24"><mask id="mask0" width="24" height="24" x="0" y="0" mask-type="alpha" maskUnits="userSpaceOnUse"><path fill="#B4D7EE" fill-rule="evenodd" d="M21.5144 6C19.5212 2.84625 16.0064 0.75 11.9999 0.75C7.99335 0.75 4.47848 2.84625 2.48535 6H2.4855C1.38787 7.737 0.75 9.79313 0.75 12C0.75 14.2069 1.38787 16.263 2.4855 18H2.48535C4.47848 21.1537 7.99335 23.25 11.9999 23.25C16.0064 23.25 19.5212 21.1537 21.5144 18H21.5145C22.6121 16.263 23.25 14.2069 23.25 12C23.25 9.79313 22.6121 7.737 21.5145 6H21.5144Z" clip-rule="evenodd"/></mask><g mask="url(#mask0)"><rect width="27" height="14" x="-2" y="-1" fill="#FCD116"/><rect width="27" height="6" x="-2" y="13" fill="#003893"/><rect width="27" height="6" x="-2" y="19" fill="#CE1126"/></g></svg>